<?xml version="1.0" standalone="no"?>
<!DOCTYPE svg PUBLIC "-//W3C//DTD SVG 20010904//EN"
 "http://www.w3.org/TR/2001/REC-SVG-20010904/DTD/svg10.dtd">
<svg version="1.0" xmlns="http://www.w3.org/2000/svg"
 width="512.000000pt" height="512.000000pt" viewBox="0 0 512.000000 512.000000"
 preserveAspectRatio="xMidYMid meet">

<g transform="translate(0.000000,512.000000) scale(0.100000,-0.100000)"
fill="#000000" stroke="none">
<path d="M1618 5109 c-204 -30 -385 -197 -440 -405 -19 -72 -19 -4216 0 -4288
50 -187 191 -331 386 -394 46 -15 142 -17 991 -17 l940 0 70 22 c186 59 340
231 374 417 15 84 15 4148 0 4232 -33 183 -184 354 -368 417 l-66 22 -915 1
c-503 1 -941 -2 -972 -7z m1928 -251 c28 -15 72 -50 97 -78 84 -93 77 112 77
-2220 0 -2332 7 -2127 -77 -2220 -25 -28 -69 -63 -97 -78 l-51 -27 -935 0
-935 0 -57 28 c-65 32 -121 89 -152 156 l-21 46 -3 2075 c-2 2277 -6 2130 57
2217 39 54 91 93 154 115 49 16 109 17 972 15 l920 -2 51 -27z"/>
<path d="M2150 4633 c-66 -45 -72 -136 -13 -183 25 -19 38 -20 417 -20 429 0
419 -1 451 60 19 37 19 63 0 100 -31 59 -37 60 -452 60 -339 0 -381 -2 -403
-17z"/>
<path d="M2500 921 c-107 -33 -170 -116 -170 -223 1 -172 175 -279 329 -202
115 58 158 195 98 310 -46 88 -167 142 -257 115z"/>
</g>
</svg>
